<svg width="566" height="293" viewBox="0 0 566 293" fill="none" xmlns="http://www.w3.org/2000/svg">
<path d="M528.423 170.44L537.621 178.851L547.277 188.505M528.423 170.44L508.413 150.052M528.423 170.44L532.723 167.935L556.328 154.602L562.528 157.143M528.423 170.44L491.036 193.757L487.739 195.879M547.277 188.505L565 205.619M547.277 188.505L558.785 164.942L561.441 159.528L562.528 157.143M547.277 188.505L523.748 236.926M562.528 157.143L564.412 153.312L565 152.268M562.528 157.143L565 160.063M562.528 157.143L555.249 149.135L552.864 146.897L531.107 129.005M531.107 129.005L508.413 150.052M531.107 129.005L547.871 91.2639L549.109 88.2503M531.107 129.005L517.054 118.743M508.413 150.052L507.792 149.67M507.792 149.67L479.114 172.809M507.792 149.67L496.065 138.994M479.114 172.809L477.123 169.276M479.114 172.809L453.267 188.474M477.123 169.276L472.528 172.51L459.754 145.944L463.178 144.796M477.123 169.276L480.807 166.829L468.713 141.719L463.178 144.796M477.123 169.276L463.178 144.796M463.178 144.796L460.28 139.293M460.28 139.293L446.096 145.676L441.959 147.516M460.28 139.293L477.478 131.337M441.959 147.516L442.831 150.676M441.959 147.516L440.593 142.542L433.079 116.442M441.959 147.516L440.346 148.286M442.831 150.676L441.552 152.102M442.831 150.676L449.918 176.352M441.552 152.102L438.976 154.979M441.552 152.102L443.997 160.969M441.552 152.102L440.346 148.286M438.976 154.979L438.231 166.105L439.072 170.995M438.976 154.979L437.662 151.834L418.015 160.823M438.976 154.979L437.857 155.886L434.437 157.71L432.621 161.829L429.63 164.879L428.619 165.251M439.072 170.995L439.617 174.187L443.89 180.822M439.072 170.995L433.111 174.25M443.89 180.822L452.117 189.155M443.89 180.822L431.028 187.908M443.89 180.822L449.918 176.352M452.117 189.155L453.267 188.474M452.117 189.155L436.34 198.531M453.267 188.474L449.918 176.352M436.34 198.531L431.028 187.908M436.34 198.531L433.983 199.93M431.028 187.908L430.59 187.027L427.946 188.055L423.116 179.706M423.116 179.706L433.111 174.25M423.116 179.706L415.323 166.231L414.431 160.655M433.111 174.25L428.619 165.251M428.619 165.251L421.675 168.674L419.751 164.397L418.151 165.251L417.135 163.323L416.825 161.368L418.015 160.823M418.015 160.823L417.286 159.292M417.286 159.292L414.431 160.655M417.286 159.292L440.346 148.286M414.431 160.655L420.44 172.473M414.431 160.655L407.081 164.035L385.53 173.595M414.431 160.655L412.835 155.031L402.939 121.94L402.159 119.476M385.53 173.595L383.225 165.655L379.08 152.385M385.53 173.595L387.569 180.623L388.585 184.375M379.08 152.385L373.581 135.43L369.153 121.62M379.08 152.385L369.364 151.258M369.153 121.62L367.313 115.567M369.153 121.62L355.244 118.601M369.153 121.62L402.159 119.476M367.313 115.567L364.944 107.768M367.313 115.567L367.118 114.917L364.944 107.768M364.944 107.768L355.801 79.5344L355.208 77.4222M364.944 107.768L355.244 118.601M355.244 118.601L293.368 105.163M293.368 105.163L298.182 74.8226M293.368 105.163L291.668 122.909M293.368 105.163L278.376 101.08M298.182 74.8226L327.231 76.3059L355.208 77.4222M298.182 74.8226L301.623 49.702M355.208 77.4222L349.103 54.8069L347.324 49.7282M347.324 49.7282L343.947 42.6527M347.324 49.7282L349.549 42.2963L350.071 41.7145M347.324 49.7282L301.623 49.702M343.947 42.6527L345.583 42.0447M343.947 42.6527L341.546 43.5175M343.947 42.6527L341.239 35.0111M345.583 42.0447L348.283 40.9965M345.583 42.0447L346.165 43.7062L346.666 43.5542L348.283 40.9965M345.583 42.0447L344.357 38.5489L344.56 38.2816L349.115 39.4084L349.107 39.6967L348.283 40.9965M348.283 40.9965L350.071 41.7145M350.071 41.7145L352.337 42.6212L353.456 41.573M350.071 41.7145L353.296 38.1191M353.456 41.573L354.188 42.3382L355.59 40.8497M353.456 41.573L357.02 38.2449L363.45 39.9378M353.296 38.1191L356.554 34.9692M353.296 38.1191L348.606 38.0562L344.01 37.0866L341.239 35.0111M356.554 34.9692L361.917 30.5876L363.243 27.4481M356.554 34.9692L349.999 33.6065L338.862 31.2375M356.554 34.9692L369.212 38.1034M363.243 27.4481L369.726 18.0979M363.243 27.4481L362.801 27.1441L358.708 24.3349M363.243 27.4481L370.506 33.3601M369.726 18.0979L379.896 6.68782M369.726 18.0979L373.935 21.7877L371.836 29.1253L370.506 33.3601M369.726 18.0979L366.759 15.5035L339.682 9.41323L337.365 9.81681M379.896 6.68782L376.089 3.04519L375.646 1M379.896 6.68782L384.98 1M370.506 33.3601L369.212 38.1034M370.506 33.3601L416.617 45.5772M369.212 38.1034L379.625 41.0908M379.625 41.0908L415.634 50.9756M379.625 41.0908L380.641 45.855L400.717 114.875L402.159 119.476M415.634 50.9756L446.729 60.2838M415.634 50.9756L415.57 55.2523L432.008 113.035L433.079 116.442M446.729 60.2838L445.964 62.6214M446.729 60.2838L448.724 54.1989M446.729 60.2838L459.228 63.439M445.964 62.6214L453.849 64.8331L455.075 66.83L455.226 68.0616M445.964 62.6214L442.377 61.6989M455.226 68.0616L456.329 74.3876M455.226 68.0616L459.909 68.6696M459.909 68.6696L464.488 69.2251L465.759 77.0239M459.909 68.6696L460.845 75.6665M459.909 68.6696L459.228 63.439M465.759 77.0239L505.889 109.251M465.759 77.0239L460.845 75.6665M505.889 109.251L517.054 118.743M505.889 109.251L512.312 81.8038L513.255 78.3499M513.255 78.3499L549.109 88.2503M513.255 78.3499L470.453 66.1591L459.228 63.439M549.109 88.2503L565 92.5659M459.228 63.439L458.531 56.4578M458.531 56.4578L448.724 54.1989M458.531 56.4578L458.273 55.0113L457.337 49.1831L456.433 44.9693L454.362 34.6599L448.573 7.00229M458.531 56.4578L512.869 71.6727M512.869 71.6727L511.049 66.7828L506.833 54.744M512.869 71.6727L550.391 82.1759M506.833 54.744L509.003 54.3404L540.229 48.8687L544.346 48.4284M506.833 54.744L498.148 31.4419M498.148 31.4419L488.587 7.31676L486.855 2.4739M498.148 31.4419L500.422 31.0226L539.568 23.8527M486.855 2.4739L486.297 1M486.855 2.4739L482.602 2.97705M486.855 2.4739L499.301 1M482.602 2.97705L482.033 1.47282L481.668 1M482.602 2.97705L453.618 6.40479M453.618 6.40479L453.212 3.71606M453.618 6.40479L448.573 7.00229M453.212 3.71606L476.761 1M453.212 3.71606L451.905 3.19194L451.157 1.96026L450.952 1M448.573 7.00229L447.254 1M448.573 7.00229L443.062 7.58407L411.895 11.211M411.895 11.211L416.124 40.6191L416.617 45.5772M411.895 11.211L410.173 1M416.617 45.5772L448.724 54.1989M448.724 54.1989L449.891 50.6349M539.568 23.8527L543.626 23.1241L565 19.6996M539.568 23.8527L543.634 44.812L544.346 48.4284M539.568 23.8527L538.875 20.7132L534.548 1M544.346 48.4284L565 44.8792M544.346 48.4284L550.809 78.0669L550.391 82.1759M550.391 82.1759L565 86.2673M517.054 118.743L496.065 138.994M496.065 138.994L487.281 130.949L485.872 129.377M485.872 129.377L482.069 124.335M485.872 129.377L477.478 131.337M482.069 124.335L481.356 127.176L477.478 131.337M482.069 124.335L470.438 113.586L468.829 110.053L467.407 101.61L463.82 94.6182M477.478 131.337L476.387 126.195M476.387 126.195L474.702 128.68L464.616 132.883M476.387 126.195L466.854 117.218L464.062 113.151M464.062 113.151L462.82 101.992L463.82 94.6182M464.062 113.151L460.745 113.931L433.079 116.442M463.82 94.6182L460.845 75.6665M463.82 94.6182L466.448 111.583L467.67 114.361L476.633 122.972M433.079 116.442L406.137 119.141L402.159 119.476M337.365 9.81681L331.834 11.4363L329.106 18.8002L330.5 22.3432M337.365 9.81681L334.51 1M337.365 9.81681L336.13 21.8243M337.365 9.81681L340.602 15.2152L346.153 20.4721M330.5 22.3432L332.738 28.6012M330.5 22.3432L324.782 21.8663L317.244 20.1839L289.737 14.1513M330.5 22.3432L336.13 21.8243M332.738 28.6012L334.271 33.3444M332.738 28.6012L338.862 31.2375M332.738 28.6012L327.708 27.4848L305.613 22.7258M334.271 33.3444L336.736 33.858L338.201 35.0268L341.546 43.5175M334.271 33.3444L306.923 27.6053M341.546 43.5175L342.613 46.2166L341.601 47.8571L303.928 47.7942L304.016 47.202M304.016 47.202L302.029 46.9504M304.016 47.202L306.923 27.6053M302.029 46.9504L300.125 46.7093M302.029 46.9504L304.88 27.684L304.952 27.207M302.029 46.9504L301.623 49.702M300.125 46.7093L300.006 47.4798L287.789 45.7659L290.696 24.1724L303.188 26.8506M300.125 46.7093L303.188 26.8506M303.188 26.8506L304.952 27.207M304.952 27.207L306.923 27.6053M304.952 27.207L305.613 22.7258M305.613 22.7258L289.693 19.8537M289.693 19.8537L247.313 9.97404M289.693 19.8537L286.081 47.1129M247.313 9.97404L225.695 4.95823M247.313 9.97404L246.747 13.7582M225.695 4.95823L224.584 8.94153M225.695 4.95823L226.562 1M225.695 4.95823L218.933 3.60075M224.584 8.94153L218.452 14.4343L212.407 17.9721L207.159 19.1828L204.463 19.4134L203.36 24.2772M224.584 8.94153L243.311 12.993M203.36 24.2772L198.215 23.4334M203.36 24.2772L201.863 31.814L202.325 33.4754L240.989 38.6485L244.613 14.6177L243.311 12.993M198.215 23.4334L192.434 22.49M198.215 23.4334L196.033 34.4503M198.215 23.4334L200.071 18.8107L203.822 13.5328M198.215 23.4334L198.454 18.6115L197.367 11.4311M192.434 22.49L193.54 16.6199L190.801 14.7121L186.707 10.3829L183.641 4.70141L182.618 1.86068L181.965 1.19505M192.434 22.49L190.984 29.9377L188.428 31.6148L175.554 29.8014L168.076 29.4712L161.693 29.8486M181.965 1.19505L181.982 1M181.965 1.19505L180.275 1M161.693 29.8486L158.037 30.4041L151.993 31.8035L144.467 34.0834L138.251 36.9661M161.693 29.8486L161.239 33.0771M161.693 29.8486L162.071 22.0864M138.251 36.9661L132.429 39.9954L129.965 40.3676L125.178 35.9912L129.47 1M138.251 36.9661L137.805 39.7805M138.251 36.9661L138.582 34.8643L139.008 32.2438L139.812 29.5708L141.465 26.4104L144.455 23.8422L147.712 22.1336L151.236 20.9753L155.569 21.4208L159.817 21.7457L162.071 22.0864M137.805 39.7805L142.102 37.5635L152.674 34.3507L161.239 33.0771M137.805 39.7805L131.53 43.0196L121.38 45.6978M161.239 33.0771L164.42 32.4272L176.92 32.532L189.63 33.9996L196.033 34.4503M196.033 34.4503L199.577 34.9482L242.666 41.1747M196.033 34.4503L189.59 63.6434M242.666 41.1747L246.747 13.7582M242.666 41.1747L237.76 70.7189M242.666 41.1747L286.081 47.1129M246.747 13.7582L249.419 14.3609M246.747 13.7582L243.311 12.993M237.76 70.7189L281.916 78.114M237.76 70.7189L234.913 90.0637M281.916 78.114L278.376 101.08M281.916 78.114L286.081 47.1129M278.376 101.08L275.816 120.467M278.376 101.08L234.913 90.0637M275.816 120.467L275.696 122.139M275.816 120.467L273.51 120.126L266.761 119.151L257.849 117.846L257.335 121.866L256.826 125.823L256.459 129.167L255.902 133.36L255.667 135.619M275.816 120.467L291.668 122.909M275.696 122.139L259.494 119.665L258.518 130.042M275.696 122.139L291.512 124.55M275.696 122.139L275.31 127.422M258.518 130.042L257.965 135.917M258.518 130.042L269.03 131.667M257.965 135.917L257.61 139.67M257.965 135.917L255.667 135.619M257.61 139.67L256.77 148.611L272.009 150.618M257.61 139.67L267.888 141.473M272.009 150.618L288.271 152.914M272.009 150.618L272.427 147.332M272.009 150.618L271.762 152.547M288.271 152.914L289.956 140.912M288.271 152.914L288.004 154.811M289.956 140.912L290.621 133.921M289.956 140.912L369.364 151.258M369.364 151.258L365.143 181.593M365.143 181.593L360.775 210.182M365.143 181.593L388.585 184.375M365.143 181.593L285.858 171.022M360.775 210.182L281.948 199.632M360.775 210.182L398.022 215.019M360.775 210.182L356.032 242.292M356.032 242.292L354.001 241.627L324.236 231.91M356.032 242.292L351.453 272.432M324.236 231.91L306.218 256.726M324.236 231.91L311.589 227.786M306.218 256.726L305.437 257.9L302.957 261.212L285.301 285.503M306.218 256.726L335.68 266.951M285.301 285.503L284.939 286M285.301 285.503L261.238 273.108M285.301 285.503L286.266 286M261.238 273.108L246.913 286M261.238 273.108L311.589 227.786M311.589 227.786L291.433 221.203M291.433 221.203L289.482 220.559M291.433 221.203L280.582 231.884L229.605 279.408M289.482 220.559L279.439 230.789L278.257 229.709L277.663 229.164L276.473 228.079L276.25 227.875L275.632 228.121L272.67 229.311L270.842 230.081L270.878 224.374L270.786 220.805L270.42 218.426L269.926 214.946M289.482 220.559L279.718 216.45M269.926 214.946L271.173 215.15L279.718 216.45M269.926 214.946L266.741 214.422M279.718 216.45L281.948 199.632M281.948 199.632L285.858 171.022M281.948 199.632L265.482 197.221M285.858 171.022L269.835 168.831M285.858 171.022L288.004 154.811M269.835 168.831L238.787 164.717M269.835 168.831L271.762 152.547M269.835 168.831L265.482 197.221M238.787 164.717L209.906 161.064M238.787 164.717L235.741 193.353M209.906 161.064L205.9 189.69M209.906 161.064L167.546 155.231M205.9 189.69L235.741 193.353M205.9 189.69L155.369 182.546M155.369 182.546L147.489 201.529M155.369 182.546L165.719 159.984L167.546 155.231M155.369 182.546L138.052 180.675M147.489 201.529L144.312 209.846M147.489 201.529L149.492 201.733L170.545 203.856M144.312 209.846L141.612 221.706L140.095 235.207M144.312 209.846L126.054 208.022M140.095 235.207L141.285 274.922M140.095 235.207L171.99 232.922M141.285 274.922L140.839 274.88L137.487 274.555L85.1995 275.708L78.5656 275.655L74.0023 275.907M141.285 274.922L141.676 274.958L153.84 276.064L155.676 276.221M141.285 274.922L141.21 278.271L140.885 286M74.0023 275.907L72.7798 271.625M74.0023 275.907L69.3752 277.657L53.9749 286M74.0023 275.907L73.8709 280.388L74.4684 286M72.7798 271.625L73.9784 270.603M72.7798 271.625L69.8929 272.134M72.7798 271.625L72.0989 265.499M72.7798 271.625L68.2245 270.661L66.1698 268.497M73.9784 270.603L77.5422 273.543L97.9179 273.973M73.9784 270.603L73.4448 264.728M73.4448 264.728L72.0989 265.499M73.4448 264.728L72.6444 255.934M72.0989 265.499L71.3105 265.95M72.0989 265.499L71.5454 257.313L71.4419 256.039M71.3105 265.95L70.98 263.811M71.3105 265.95L70.9043 267.784L67.1215 267.679M70.98 263.811L70.2433 264.781M70.98 263.811L70.4464 256.128M70.2433 264.781L68.0413 261.338L69.7854 264.424L70.6057 272.909M70.2433 264.781L67.1215 267.679M70.6057 272.909L51.91 286M70.6057 272.909L128.862 271.285L137.869 271.468L139.35 271.473M139.35 271.473L142.687 271.463L142.607 268.423M139.35 271.473L139.278 268.439M139.35 271.473L139.083 279.366L138.916 281.557M67.1215 267.679L58.1541 259.257M67.1215 267.679L66.1698 268.497M66.1698 268.497L65.2977 267.511M66.1698 268.497L58.7394 260.677L46.8334 247.638M65.2977 267.511L51.8785 254.027M65.2977 267.511L69.8929 272.134M69.8929 272.134L68.6943 276.373L51.6674 286M46.8334 247.638L44.1496 245.536M46.8334 247.638L48.0758 246.249M44.1496 245.536L12.2223 271.154L10.3906 272.359L8.53897 273.528M44.1496 245.536L39.1403 241.008M8.53897 273.528L3.47393 266.458L1 262.992M8.53897 273.528L11.1033 277.374L15.4039 283.616L16.9976 286M39.1403 241.008L25.6972 231.826M39.1403 241.008L63.3306 203.777L63.8801 201.125M63.8801 201.125L67.0179 201.288M63.8801 201.125L57.955 199.626L44.4084 196.126M67.0179 201.288L71.4419 256.039M67.0179 201.288L63.9558 173.401M67.0179 201.288L96.799 204.815M63.9558 173.401L59.7628 173.464M63.9558 173.401L63.8324 172.269M63.8324 172.269L102.007 176.603M63.8324 172.269L63.1952 164.418L61.4153 140.807M102.007 176.603L96.799 204.815M102.007 176.603L106.869 147.421M102.007 176.603L138.052 180.675M96.799 204.815L126.054 208.022M126.054 208.022L138.052 180.675M138.052 180.675L149.632 152.689M149.632 152.689L126.982 149.9M149.632 152.689L161.283 126.389L165.762 110.64M149.632 152.689L167.546 155.231M165.762 110.64L137.459 112.328L135.655 112.438M165.762 110.64L182.646 109.471M135.655 112.438L133.923 112.522L112.006 113.612M135.655 112.438L139.828 82.5008M135.655 112.438L134.154 126.091L126.982 149.9M139.828 82.5008L142.133 64.3562M139.828 82.5008L187.042 79.0627M139.828 82.5008L116.573 83.9526M142.133 64.3562L144.164 49.9798M142.133 64.3562L118.592 64.8226M142.133 64.3562L183.761 62.9725L189.59 63.6434M118.592 64.8226L121.38 45.6978M118.592 64.8226L116.573 83.9526M118.592 64.8226L54.5106 66.1014M121.38 45.6978L63.5974 40.1998L56.7246 39.6338M121.38 45.6978L126.621 1M56.7246 39.6338L49.9393 38.8633L40.8565 36.0226M56.7246 39.6338L54.5305 43.4493M56.7246 39.6338L75.714 1M40.8565 36.0226L39.3434 40.1317L37.9138 44.5709M40.8565 36.0226L33.5217 33.617L32.4386 33.271M32.4386 33.271L31.1047 37.4797L29.703 41.746M32.4386 33.271L11.8042 26.6724M11.8042 26.6724L12.3816 21.6252L14.5499 1M11.8042 26.6724L1 23.282M54.5305 43.4493L54.0806 56.6255M54.5305 43.4493L49.9831 49.8016L48.6532 52.1863M54.0806 56.6255L52.4002 53.7062L48.6532 52.1863M54.0806 56.6255L54.5106 66.1014M48.6532 52.1863L48.5297 52.4169M48.5297 52.4169L45.4039 50.7922L40.4782 48.4075M48.5297 52.4169L47.5303 54.2513L43.1541 62.7786M43.1541 62.7786L40.0243 61.2377L35.1504 58.8583M43.1541 62.7786L40.4384 68.0721M40.4384 68.0721L32.1957 84.6025M40.4384 68.0721L8.05715 51.5312M32.1957 84.6025L14.8225 119.115M32.1957 84.6025L41.4936 88.9997M14.8225 119.115L17.8567 120.173L23.5071 122.197L29.8703 124.466M14.8225 119.115L13.9146 121.007L6.70727 135.65M29.8703 124.466L25.5021 136.971M29.8703 124.466L41.4936 88.9997M25.5021 136.971L25.1238 138.108M25.5021 136.971L52.0657 140.184M25.1238 138.108L23.2881 137.825L18.247 137.186L14.6752 136.688L9.96052 136.138L6.70727 135.65M25.1238 138.108L11.5095 178.909M6.70727 135.65L1 147.178M11.5095 178.909L36.8706 192.567M11.5095 178.909L1 172.957M11.5095 178.909L1 198.96M36.8706 192.567L44.4084 196.126M36.8706 192.567L52.0657 140.184M44.4084 196.126L25.6972 231.826M25.6972 231.826L2.02847 247.35L1 248.314M25.6972 231.826L1 218.812M52.0657 140.184L52.5754 138.438M52.5754 138.438L61.2321 138.674M52.5754 138.438L58.5045 118.156M61.2321 138.674L63.0519 138.711L63.1475 140.199L64.7562 140.42L64.7044 141.279M61.2321 138.674L60.5911 131.138L58.5045 118.156M61.2321 138.674L61.4153 140.807M64.7044 141.279L106.869 147.421M64.7044 141.279L61.4153 140.807M106.869 147.421L126.982 149.9M106.869 147.421L112.006 113.612M112.006 113.612L97.7626 114.576M112.006 113.612L116.573 83.9526M116.573 83.9526L56.5573 88.2136M56.5573 88.2136L58.8708 116.489M56.5573 88.2136L41.4936 88.9997M56.5573 88.2136L54.5106 66.1014M58.8708 116.489L60.6986 116.552M58.8708 116.489L58.5045 118.156M60.6986 116.552L62.9125 131.505L72.4852 131.059L74.6354 130.944L80.8035 130.656L82.6909 130.561L84.5983 130.462L88.3254 130.257L92.0246 130.142L95.3456 129.979L98.6466 129.906L97.8263 116.3L97.7626 114.576M60.6986 116.552L60.5871 115.63L98.4196 113.156L97.7626 114.576M60.6986 116.552L97.7626 114.576M189.59 63.6434L187.042 79.0627M187.042 79.0627L186.329 84.9274L182.646 109.471M187.042 79.0627L192.262 80.3205L234.913 90.0637M182.646 109.471L178.7 125.677M178.7 125.677L177.334 129.649L167.546 155.231M178.7 125.677L228.43 132.553M228.43 132.553L255.667 135.619M228.43 132.553L234.913 90.0637M255.667 135.619L253.811 150.241L270.042 152.264L271.762 152.547M271.762 152.547L273.426 152.841L279.774 153.679L288.004 154.811M71.4419 256.039L72.6444 255.934M71.4419 256.039L70.4464 256.128M72.6444 255.934L72.5767 255.195M72.5767 255.195L81.8069 250.002L84.6341 249.163L108.088 248.692L109.37 247.879M72.5767 255.195L72.3736 252.523M109.37 247.879L109.434 249.289L109.935 249.226M109.37 247.879L108.988 239.274M108.988 239.274L109.716 239.242M108.988 239.274H107.534L107.407 231.868L101.928 232.036M101.928 232.036L101.749 229.688M101.928 232.036L81.9861 232.639L80.6641 237.135L81.0344 238.142M81.0344 238.142L80.2539 238.425M81.0344 238.142L81.5162 239.447L82.436 246.669L78.9877 249.593L72.3736 252.523M72.3736 252.523L71.6131 242.361L70.9163 234.153M70.9163 234.153L71.5574 234.127M70.9163 234.153L69.6818 219.657L68.4116 203.269M70.4464 256.128L70.0402 250.321M155.676 276.221L154.677 286M155.676 276.221L168.693 277.464L171.99 279.198M171.99 279.198L171.835 241.941M171.99 279.198L183.102 286M171.835 241.941L171.99 232.922M171.835 241.941L201.48 239.064M171.99 232.922L170.545 203.856M170.545 203.856L196.682 206.398M196.682 206.398L234.965 209.485M196.682 206.398L201.48 239.064M234.965 209.485L266.741 214.422M234.965 209.485L221.311 237.324M234.965 209.485L235.741 193.353M266.741 214.422L268.274 217.739L269.325 220.894L269.464 224.28L269.202 227.602L268.003 229.541L259.35 232.875L221.311 237.324M221.311 237.324L201.48 239.064M201.48 239.064L199.756 245.594M199.756 245.594L229.605 279.408M199.756 245.594L185.609 286M229.605 279.408L223.151 286M235.741 193.353L265.482 197.221M335.68 266.951L325.566 284.24L324.329 286M335.68 266.951L351.453 272.432M351.453 272.432L351.998 273.591L353.328 274.345M353.328 274.345L360.934 276.4M353.328 274.345L349.772 286M360.934 276.4L409.267 278.37M360.934 276.4L366.871 278.208L366.208 286M360.934 276.4L355.049 275.425L354.097 276.022L353.376 277.086L350.765 286M360.934 276.4L402.736 241.029L405.54 242.764M409.267 278.37L409.469 286M409.267 278.37L408.976 273.35M408.976 273.35L405.54 242.764M408.976 273.35L440.935 264.907M405.54 242.764L408.598 242.513M405.54 242.764L404.03 237.314M408.598 242.513L408.307 240.746M408.598 242.513L408.912 244.195M408.598 242.513L433.477 228.184M408.307 240.746L408.801 240.82L434.357 225.522M408.307 240.746L406.838 239.866L405.922 236.879M434.357 225.522L433.812 224.568M434.357 225.522L435.149 227.173M433.812 224.568L424.589 208.541M433.812 224.568L435.85 224.101L431.438 215.176L426.891 207.016L424.589 208.541M433.812 224.568L431.462 226.905L421.388 210.669L424.589 208.541M424.589 208.541L424.199 207.792M424.199 207.792L403.541 220.501M424.199 207.792L426.306 206.497L428.352 203.279M403.541 220.501L402.267 223.179L405.922 236.879M403.541 220.501L402.732 218.504M405.922 236.879L404.03 237.314M404.03 237.314L401.426 237.932M404.03 237.314L399.754 220.276M399.754 220.276L402.732 218.504M399.754 220.276L398.022 215.019M402.732 218.504L401.542 215.281M402.732 218.504L425.656 204.878L428.352 203.279M428.352 203.279L433.983 199.93M433.983 199.93L430.913 193.61M398.022 215.019L394.175 202.525M394.175 202.525L397.906 201.246L402.342 199.71M394.175 202.525L388.585 184.375M435.149 227.173L435.703 228.315M435.149 227.173L433.477 228.184M435.149 227.173L446.645 220.37M433.477 228.184L440.935 264.907M440.935 264.907L447.784 263.161L459.865 269.812L509.361 261.94M509.361 261.94L510.56 261.752L511.635 261.579M509.361 261.94L508.37 264.126M511.635 261.579L515.569 253.466M511.635 261.579L500.208 286M515.569 253.466L513.466 252.454L512.786 252.129L458.129 225.883M515.569 253.466L523.748 236.926M458.129 225.883L457.452 227.576L451.774 241.711M458.129 225.883L446.645 220.37M446.645 220.37L482.694 198.898L487.739 195.879M487.739 195.879L520.22 235.202L523.748 236.926M523.748 236.926L525.982 238.33L553.847 255.877M553.847 255.877L544.685 269.22M553.847 255.877L565 238.857M544.685 269.22L533.816 286M544.685 269.22L555.472 274.272M555.472 274.272L551.786 286M555.472 274.272L559.928 276.001M559.928 276.001L565 270.945M559.928 276.001L565 278.001M508.37 264.126L498.429 286M508.37 264.126L505.73 263.23L467.758 269.676L467.754 270.336L467.718 278.716L472.373 280.582L471.759 283.04M471.759 283.04L478.364 286M471.759 283.04L470.95 286M290.621 133.921L282.231 133.019L278.906 132.841M290.621 133.921L291.512 124.55M278.906 132.841L269.03 131.667M278.906 132.841V133.439L278.655 136.174L278.4 139.162L278.209 142.091L278.022 142.652M278.906 132.841V131.08L278.209 129.366L277.257 128.197L275.31 127.422M269.03 131.667L269.405 130.635L270.607 128.591L272.355 127.39L275.31 127.422M269.03 131.667L268.58 133.638L268.154 137.972L267.888 141.473M267.888 141.473L278.022 142.652M267.888 141.473L267.78 142.249L268.262 144.392L269.544 146.373L272.427 147.332M278.022 142.652L277.193 144.953L275.605 146.546L272.427 147.332M291.512 124.55L291.668 122.909M286.081 47.1129L301.623 49.702M162.071 22.0864L163.7 8.1868L164.545 1M203.822 13.5328L206.777 13.4752L211.973 11.8294L216.246 8.31783L216.863 7.48448L218.933 3.60075M203.822 13.5328L202.456 13.3546L197.367 11.4311M218.933 3.60075L211.423 2.6521L204.148 1.33655L202.055 1M218.933 3.60075L219.316 1M197.367 11.4311L195.32 9.92163L192.983 7.30628L191.263 4.04102L190.683 1M338.862 31.2375L336.879 26.7091L336.13 21.8243M338.862 31.2375L341.239 35.0111M336.13 21.8243L341.394 20.3306L346.153 20.4721M346.153 20.4721L358.708 24.3349M358.708 24.3349L356.609 18.8211L346.854 16.7299L342.82 16.0119L340.598 12.9406L336.643 1M289.737 14.1513L291.662 1M289.737 14.1513L248.137 4.88485M248.137 4.88485L248.722 1M248.137 4.88485L237.887 2.64162L230.793 1M97.7894 1L96.5242 10.6082L104.803 11.6984L106.211 1M327.463 1L328.218 3.54311L336.315 1M138.912 220.354L138.558 226.601M138.912 220.354L143.897 221.554L142.946 227.272M138.912 220.354L139.868 215.349L140.413 213.059M246.408 1L246.051 1.23697L245.011 1M550.296 90.4935L552.916 91.2901L555.269 91.8142L557.372 92.4431M407.487 192.415L407.881 193.081L407.953 193.206M407.487 192.415L407.395 192.473L403.525 185.869M407.487 192.415L412.237 189.59L411.294 187.048M411.294 187.048L407.535 180.922L414.053 176.907L417.812 183.034L411.294 187.048Z" stroke="url(#paint0_linear_445_2)" stroke-width="1.5"/>
<circle cx="370.5" cy="132.5" r="7.5" fill="#FF2323" stroke="#B5E48C" stroke-width="2"/>
<path d="M181.133 282.532L177.664 285.399L183.399 292.336L186.867 289.468L181.133 282.532ZM363 138L311.764 146.652L344.874 186.698L363 138ZM186.867 289.468L334.655 167.275L328.92 160.339L181.133 282.532L186.867 289.468Z" fill="url(#paint1_linear_445_2)"/>
<defs>
<linearGradient id="paint0_linear_445_2" x1="283" y1="-53.5" x2="349" y2="337.5" gradientUnits="userSpaceOnUse">
<stop stop-color="#52B69A"/>
<stop offset="0.498958" stop-color="#34A0A4"/>
<stop offset="1" stop-color="#D9ED92"/>
</linearGradient>
<linearGradient id="paint1_linear_445_2" x1="314" y1="172.5" x2="201.5" y2="291.5" gradientUnits="userSpaceOnUse">
<stop offset="0.390625" stop-color="#B5E48C"/>
<stop offset="1" stop-color="#52B69A" stop-opacity="0"/>
</linearGradient>
</defs>
</svg>
