<svg width="22" height="22" viewBox="0 0 22 22" fill="none" xmlns="http://www.w3.org/2000/svg">
<path id="Vector" d="M14.6459 10.62L20.6843 4.58168C21.4252 3.8407 21.4252 2.63931 20.6843 1.89772L19.3423 0.55574C18.6013 -0.185247 17.3999 -0.185247 16.6583 0.55574L10.62 6.59405L4.58169 0.55574C3.8407 -0.185247 2.63931 -0.185247 1.89772 0.55574L0.55574 1.89772C-0.185247 2.63871 -0.185247 3.84009 0.55574 4.58168L6.59405 10.62L0.55574 16.6583C-0.185247 17.3993 -0.185247 18.6007 0.55574 19.3423L1.89772 20.6843C2.63871 21.4252 3.8407 21.4252 4.58169 20.6843L10.62 14.6459L16.6583 20.6843C17.3993 21.4252 18.6013 21.4252 19.3423 20.6843L20.6843 19.3423C21.4252 18.6013 21.4252 17.3999 20.6843 16.6583L14.6459 10.62Z" fill="#D9ED92"/>
</svg>
